<svg width="31" height="31" viewBox="0 0 31 31" fill="none" xmlns="http://www.w3.org/2000/svg">
<path d="M23.345 5.67926C22.986 5.67926 22.635 5.78572 22.3365 5.98518C22.038 6.18464 21.8053 6.46815 21.6679 6.79984C21.5305 7.13153 21.4946 7.49651 21.5646 7.84864C21.6347 8.20076 21.8075 8.5242 22.0614 8.77807C22.3153 9.03194 22.6387 9.20482 22.9908 9.27486C23.343 9.3449 23.7079 9.30896 24.0396 9.17157C24.3713 9.03417 24.6548 8.80151 24.8543 8.503C25.0538 8.20448 25.1602 7.85352 25.1602 7.4945C25.1602 7.01307 24.969 6.55136 24.6285 6.21093C24.2881 5.87051 23.8264 5.67926 23.345 5.67926ZM30.3034 9.34C30.274 8.08491 30.0389 6.84314 29.6076 5.66413C29.2229 4.65536 28.6243 3.74191 27.8528 2.98665C27.1038 2.21128 26.1882 1.61641 25.1753 1.24704C23.9995 0.802553 22.7563 0.562108 21.4995 0.536074C19.896 0.445312 19.3817 0.445312 15.2672 0.445312C11.1526 0.445312 10.6383 0.445312 9.03482 0.536074C7.778 0.562108 6.53484 0.802553 5.35896 1.24704C4.34798 1.62015 3.43319 2.21451 2.68148 2.98665C1.9061 3.73571 1.31123 4.65129 0.941868 5.66413C0.497377 6.84002 0.256932 8.08317 0.230899 9.34C0.140137 10.9435 0.140137 11.4578 0.140137 15.5723C0.140137 19.6869 0.140137 20.2012 0.230899 21.8047C0.256932 23.0615 0.497377 24.3046 0.941868 25.4805C1.31123 26.4934 1.9061 27.4089 2.68148 28.158C3.43319 28.9301 4.34798 29.5245 5.35896 29.8976C6.53484 30.3421 7.778 30.5825 9.03482 30.6086C10.6383 30.6993 11.1526 30.6993 15.2672 30.6993C19.3817 30.6993 19.896 30.6993 21.4995 30.6086C22.7563 30.5825 23.9995 30.3421 25.1753 29.8976C26.1882 29.5282 27.1038 28.9334 27.8528 28.158C28.6277 27.4056 29.2269 26.4913 29.6076 25.4805C30.0389 24.3015 30.274 23.0597 30.3034 21.8047C30.3034 20.2012 30.3942 19.6869 30.3942 15.5723C30.3942 11.4578 30.3942 10.9435 30.3034 9.34ZM27.5805 21.6231C27.5695 22.5834 27.3956 23.5347 27.0662 24.4368C26.8247 25.0951 26.4368 25.6899 25.9317 26.1764C25.441 26.6763 24.8474 27.0635 24.1921 27.3109C23.2901 27.6403 22.3387 27.8142 21.3785 27.8252C19.8658 27.9008 19.3061 27.916 15.3277 27.916C11.3493 27.916 10.7896 27.916 9.27685 27.8252C8.27982 27.8439 7.28704 27.6904 6.34221 27.3714C5.71562 27.1113 5.14923 26.7252 4.67824 26.2369C4.17616 25.7509 3.79307 25.1556 3.55884 24.4973C3.18953 23.5823 2.98469 22.6093 2.95376 21.6231C2.95376 20.1104 2.863 19.5507 2.863 15.5723C2.863 11.5939 2.863 11.0342 2.95376 9.52152C2.96054 8.53986 3.13975 7.56703 3.48321 6.64739C3.74951 6.00889 4.15827 5.43974 4.67824 4.98342C5.13782 4.4633 5.7058 4.05022 6.34221 3.77326C7.26428 3.44053 8.23611 3.26662 9.21634 3.25894C10.729 3.25894 11.2887 3.16817 15.2672 3.16817C19.2456 3.16817 19.8053 3.16817 21.318 3.25894C22.2782 3.26995 23.2296 3.44386 24.1316 3.77326C24.819 4.02838 25.436 4.44315 25.9317 4.98342C26.4274 5.44809 26.8148 6.01619 27.0662 6.64739C27.4024 7.56852 27.5764 8.54096 27.5805 9.52152C27.6562 11.0342 27.6713 11.5939 27.6713 15.5723C27.6713 19.5507 27.6562 20.1104 27.5805 21.6231ZM15.2672 7.81217C13.733 7.81516 12.2341 8.27283 10.96 9.12734C9.68581 9.98185 8.69352 11.1949 8.10849 12.6131C7.52346 14.0314 7.37194 15.5912 7.67308 17.0955C7.97421 18.5998 8.71449 19.9811 9.80036 21.0649C10.8862 22.1487 12.269 22.8863 13.7739 23.1845C15.2788 23.4827 16.8383 23.3281 18.2554 22.7403C19.6725 22.1525 20.8836 21.1579 21.7357 19.8821C22.5877 18.6062 23.0424 17.1065 23.0424 15.5723C23.0444 14.5514 22.8446 13.5402 22.4544 12.5968C22.0641 11.6534 21.4912 10.7964 20.7686 10.0752C20.046 9.35405 19.188 8.78284 18.2438 8.39445C17.2997 8.00607 16.2881 7.80818 15.2672 7.81217ZM15.2672 20.6096C14.2709 20.6096 13.297 20.3142 12.4686 19.7607C11.6402 19.2072 10.9946 18.4205 10.6133 17.5C10.232 16.5796 10.1323 15.5667 10.3266 14.5896C10.521 13.6125 11.0008 12.7149 11.7052 12.0104C12.4097 11.3059 13.3073 10.8262 14.2844 10.6318C15.2616 10.4375 16.2744 10.5372 17.1948 10.9185C18.1153 11.2997 18.902 11.9454 19.4555 12.7738C20.009 13.6021 20.3044 14.576 20.3044 15.5723C20.3044 16.2338 20.1742 16.8889 19.921 17.5C19.6679 18.1112 19.2968 18.6665 18.8291 19.1342C18.3613 19.602 17.806 19.973 17.1948 20.2262C16.5837 20.4793 15.9287 20.6096 15.2672 20.6096Z" fill="white"/>
</svg>
