<svg width="33" height="31" viewBox="0 0 33 31" fill="none" xmlns="http://www.w3.org/2000/svg">
<path d="M0.449219 3.95967C0.449219 2.94099 0.804958 2.10061 1.51641 1.4385C2.22786 0.776365 3.15277 0.445312 4.2911 0.445312C5.40911 0.445312 6.31366 0.771261 7.0048 1.42322C7.71625 2.09553 8.07199 2.97155 8.07199 4.05135C8.07199 5.02926 7.72643 5.84416 7.03529 6.49612C6.32384 7.16843 5.38877 7.50459 4.23011 7.50459H4.19962C3.08161 7.50459 2.17706 7.16843 1.48592 6.49612C0.794774 5.82381 0.449219 4.97831 0.449219 3.95967ZM0.845603 30.6993V10.2855H7.61462V30.6993H0.845603ZM11.365 30.6993H18.134V19.3006C18.134 18.5875 18.2154 18.0375 18.378 17.6504C18.6625 16.9577 19.0945 16.372 19.6738 15.8932C20.2532 15.4144 20.9799 15.1751 21.854 15.1751C24.1306 15.1751 25.269 16.7132 25.269 19.7896V30.6993H32.038V18.995C32.038 15.9798 31.3265 13.6929 29.9036 12.1344C28.4807 10.5758 26.6004 9.79656 24.2628 9.79656C21.6405 9.79656 19.5976 10.9273 18.134 13.1887V13.2498H18.1036L18.134 13.1887V10.2855H11.365C11.4057 10.9374 11.426 12.9646 11.426 16.3669C11.426 19.7692 11.4057 24.5466 11.365 30.6993Z" fill="white"/>
</svg>
