<svg width="27" height="31" viewBox="0 0 27 31" fill="none" xmlns="http://www.w3.org/2000/svg">
<path fill-rule="evenodd" clip-rule="evenodd" d="M19.6454 0.470721C19.6472 0.932212 19.7822 7.60167 26.7952 8.01766C26.7952 9.94103 26.7976 11.3355 26.7976 13.1709C26.2665 13.2016 22.1807 12.9056 19.6377 10.6418L19.63 20.6741C19.7266 27.6372 14.5922 31.8745 7.8811 30.4109C-3.69141 26.9559 0.154057 9.8258 11.7739 11.6594C11.7739 17.1896 11.7769 11.6576 11.7769 17.1896C6.97643 16.4846 5.37074 20.4702 6.64664 23.3237C7.80709 25.9218 12.5868 26.485 14.2541 22.8196C14.443 22.1023 14.5371 21.2845 14.5371 20.3662V0.445312L19.6454 0.470721Z" fill="white"/>
</svg>
