<svg width="44" height="31" viewBox="0 0 44 31" fill="none" xmlns="http://www.w3.org/2000/svg">
<path fill-rule="evenodd" clip-rule="evenodd" d="M40.8263 4.67988C39.7281 2.78576 38.5382 2.4377 36.1126 2.30549C33.6896 2.1463 27.5945 2.08154 22.3168 2.08154C17.0284 2.08154 10.9306 2.1463 8.51032 2.30549C6.09007 2.4404 4.89748 2.78576 3.78853 4.67988C2.658 6.57399 2.0752 9.83068 2.0752 15.567V15.5886C2.0752 21.3006 2.658 24.5816 3.78853 26.4514C4.89478 28.3428 6.08737 28.6882 8.51032 28.8474C10.9306 28.9823 17.0257 29.0632 22.3168 29.0632C27.5945 29.0632 33.6896 28.9823 36.1153 28.8474C38.5409 28.6882 39.7308 28.3428 40.829 26.4514C41.973 24.5789 42.5504 21.2979 42.5504 15.5886V15.567C42.5477 9.83068 41.973 6.57399 40.8263 4.67988Z" stroke="white" stroke-width="2.81078" stroke-miterlimit="10" stroke-linecap="round" stroke-linejoin="round"/>
<path fill-rule="evenodd" clip-rule="evenodd" d="M18.2642 22.3175V8.82666L29.0568 15.5721L18.2642 22.3175Z" stroke="white" stroke-width="2.81078" stroke-miterlimit="10" stroke-linecap="round" stroke-linejoin="round"/>
</svg>
