<svg width="186" height="186" viewBox="0 0 186 186" fill="none" xmlns="http://www.w3.org/2000/svg">
<g filter="url(#filter0_d_3_8)">
<rect x="33" y="33" width="120" height="120" rx="16" fill="#0F6381"/>
<path d="M73.8865 118.432V119.932H70.2865V127H68.4745V118.432H73.8865ZM80.1653 123.712C80.1653 124.256 80.0893 124.74 79.9373 125.164C79.7933 125.588 79.5813 125.948 79.3013 126.244C79.0293 126.532 78.6973 126.752 78.3053 126.904C77.9133 127.048 77.4693 127.12 76.9733 127.12C76.5173 127.12 76.0933 127.048 75.7013 126.904C75.3173 126.752 74.9853 126.532 74.7053 126.244C74.4253 125.948 74.2053 125.588 74.0453 125.164C73.8933 124.74 73.8173 124.256 73.8173 123.712C73.8173 122.984 73.9453 122.372 74.2013 121.876C74.4573 121.372 74.8253 120.988 75.3053 120.724C75.7853 120.46 76.3533 120.328 77.0093 120.328C77.6253 120.328 78.1693 120.46 78.6413 120.724C79.1133 120.988 79.4853 121.372 79.7573 121.876C80.0293 122.372 80.1653 122.984 80.1653 123.712ZM75.6413 123.712C75.6413 124.144 75.6853 124.508 75.7733 124.804C75.8693 125.092 76.0173 125.312 76.2173 125.464C76.4173 125.608 76.6773 125.68 76.9973 125.68C77.3173 125.68 77.5733 125.608 77.7653 125.464C77.9653 125.312 78.1093 125.092 78.1973 124.804C78.2933 124.508 78.3413 124.144 78.3413 123.712C78.3413 123.28 78.2933 122.92 78.1973 122.632C78.1093 122.344 77.9653 122.128 77.7653 121.984C77.5653 121.84 77.3053 121.768 76.9853 121.768C76.5133 121.768 76.1693 121.932 75.9533 122.26C75.7453 122.58 75.6413 123.064 75.6413 123.712ZM87.511 127H85.723V121.792H84.079C83.999 122.752 83.899 123.572 83.779 124.252C83.667 124.924 83.523 125.472 83.347 125.896C83.179 126.32 82.963 126.632 82.699 126.832C82.435 127.024 82.111 127.12 81.727 127.12C81.519 127.12 81.331 127.104 81.163 127.072C80.995 127.04 80.843 126.992 80.707 126.928V125.5C80.795 125.532 80.887 125.56 80.983 125.584C81.079 125.608 81.179 125.62 81.283 125.62C81.395 125.62 81.499 125.576 81.595 125.488C81.699 125.4 81.795 125.244 81.883 125.02C81.979 124.796 82.067 124.488 82.147 124.096C82.227 123.704 82.299 123.212 82.363 122.62C82.435 122.02 82.499 121.296 82.555 120.448H87.511V127ZM95.3294 123.712C95.3294 124.256 95.2534 124.74 95.1014 125.164C94.9574 125.588 94.7454 125.948 94.4654 126.244C94.1934 126.532 93.8614 126.752 93.4694 126.904C93.0774 127.048 92.6334 127.12 92.1374 127.12C91.6814 127.12 91.2574 127.048 90.8654 126.904C90.4814 126.752 90.1494 126.532 89.8694 126.244C89.5894 125.948 89.3694 125.588 89.2094 125.164C89.0574 124.74 88.9814 124.256 88.9814 123.712C88.9814 122.984 89.1094 122.372 89.3654 121.876C89.6214 121.372 89.9894 120.988 90.4694 120.724C90.9494 120.46 91.5174 120.328 92.1734 120.328C92.7894 120.328 93.3334 120.46 93.8054 120.724C94.2774 120.988 94.6494 121.372 94.9214 121.876C95.1934 122.372 95.3294 122.984 95.3294 123.712ZM90.8054 123.712C90.8054 124.144 90.8494 124.508 90.9374 124.804C91.0334 125.092 91.1814 125.312 91.3814 125.464C91.5814 125.608 91.8414 125.68 92.1614 125.68C92.4814 125.68 92.7374 125.608 92.9294 125.464C93.1294 125.312 93.2734 125.092 93.3614 124.804C93.4574 124.508 93.5054 124.144 93.5054 123.712C93.5054 123.28 93.4574 122.92 93.3614 122.632C93.2734 122.344 93.1294 122.128 92.9294 121.984C92.7294 121.84 92.4694 121.768 92.1494 121.768C91.6774 121.768 91.3334 121.932 91.1174 122.26C90.9094 122.58 90.8054 123.064 90.8054 123.712ZM102.615 122.164C102.615 122.516 102.503 122.816 102.279 123.064C102.063 123.312 101.739 123.472 101.307 123.544V123.592C101.763 123.648 102.127 123.804 102.399 124.06C102.679 124.316 102.819 124.644 102.819 125.044C102.819 125.324 102.763 125.584 102.651 125.824C102.547 126.064 102.379 126.272 102.147 126.448C101.915 126.624 101.615 126.76 101.247 126.856C100.887 126.952 100.447 127 99.9271 127H96.8071V120.448H99.9271C100.439 120.448 100.895 120.504 101.295 120.616C101.703 120.72 102.023 120.896 102.255 121.144C102.495 121.392 102.615 121.732 102.615 122.164ZM100.971 124.948C100.971 124.692 100.871 124.508 100.671 124.396C100.471 124.276 100.171 124.216 99.7711 124.216H98.5951V125.764H99.8071C100.143 125.764 100.419 125.704 100.635 125.584C100.859 125.456 100.971 125.244 100.971 124.948ZM100.803 122.308C100.803 122.1 100.723 121.948 100.563 121.852C100.403 121.756 100.167 121.708 99.8551 121.708H98.5951V123.004H99.6511C100.027 123.004 100.311 122.952 100.503 122.848C100.703 122.736 100.803 122.556 100.803 122.308ZM106.142 120.448V122.968H108.638V120.448H110.426V127H108.638V124.3H106.142V127H104.354V120.448H106.142ZM114.987 120.316C115.867 120.316 116.539 120.508 117.003 120.892C117.475 121.268 117.711 121.848 117.711 122.632V127H116.463L116.115 126.112H116.067C115.883 126.344 115.691 126.536 115.491 126.688C115.299 126.84 115.075 126.948 114.819 127.012C114.571 127.084 114.263 127.12 113.895 127.12C113.511 127.12 113.163 127.048 112.851 126.904C112.547 126.752 112.307 126.524 112.131 126.22C111.955 125.908 111.867 125.516 111.867 125.044C111.867 124.348 112.111 123.836 112.599 123.508C113.087 123.172 113.819 122.988 114.795 122.956L115.935 122.92V122.632C115.935 122.288 115.843 122.036 115.659 121.876C115.483 121.716 115.235 121.636 114.915 121.636C114.595 121.636 114.283 121.684 113.979 121.78C113.675 121.868 113.371 121.98 113.067 122.116L112.479 120.904C112.831 120.72 113.219 120.576 113.643 120.472C114.075 120.368 114.523 120.316 114.987 120.316ZM115.239 123.988C114.663 124.004 114.263 124.108 114.039 124.3C113.815 124.492 113.703 124.744 113.703 125.056C113.703 125.328 113.783 125.524 113.943 125.644C114.103 125.756 114.311 125.812 114.567 125.812C114.951 125.812 115.275 125.7 115.539 125.476C115.803 125.244 115.935 124.92 115.935 124.504V123.964L115.239 123.988ZM69.6117 142.12C68.9637 142.12 68.4117 142.004 67.9557 141.772C67.4997 141.532 67.1517 141.164 66.9117 140.668C66.6717 140.172 66.5517 139.536 66.5517 138.76C66.5517 137.96 66.6877 137.308 66.9597 136.804C67.2317 136.3 67.6077 135.928 68.0877 135.688C68.5757 135.448 69.1357 135.328 69.7677 135.328C70.2157 135.328 70.6037 135.372 70.9317 135.46C71.2677 135.548 71.5597 135.652 71.8077 135.772L71.2797 137.152C70.9997 137.04 70.7357 136.948 70.4877 136.876C70.2477 136.804 70.0077 136.768 69.7677 136.768C69.4557 136.768 69.1957 136.844 68.9877 136.996C68.7797 137.14 68.6237 137.36 68.5197 137.656C68.4237 137.944 68.3757 138.308 68.3757 138.748C68.3757 139.18 68.4277 139.54 68.5317 139.828C68.6437 140.108 68.8037 140.32 69.0117 140.464C69.2197 140.6 69.4717 140.668 69.7677 140.668C70.1437 140.668 70.4757 140.62 70.7637 140.524C71.0517 140.42 71.3317 140.28 71.6037 140.104V141.628C71.3317 141.804 71.0437 141.928 70.7397 142C70.4437 142.08 70.0677 142.12 69.6117 142.12ZM78.5358 136.792H76.3878V142H74.5998V136.792H72.4518V135.448H78.5358V136.792ZM85.5794 138.712C85.5794 139.256 85.5034 139.74 85.3514 140.164C85.2074 140.588 84.9954 140.948 84.7154 141.244C84.4434 141.532 84.1114 141.752 83.7194 141.904C83.3274 142.048 82.8834 142.12 82.3874 142.12C81.9314 142.12 81.5074 142.048 81.1154 141.904C80.7314 141.752 80.3994 141.532 80.1194 141.244C79.8394 140.948 79.6194 140.588 79.4594 140.164C79.3074 139.74 79.2314 139.256 79.2314 138.712C79.2314 137.984 79.3594 137.372 79.6154 136.876C79.8714 136.372 80.2394 135.988 80.7194 135.724C81.1994 135.46 81.7674 135.328 82.4234 135.328C83.0394 135.328 83.5834 135.46 84.0554 135.724C84.5274 135.988 84.8994 136.372 85.1714 136.876C85.4434 137.372 85.5794 137.984 85.5794 138.712ZM81.0554 138.712C81.0554 139.144 81.0994 139.508 81.1874 139.804C81.2834 140.092 81.4314 140.312 81.6314 140.464C81.8314 140.608 82.0914 140.68 82.4114 140.68C82.7314 140.68 82.9874 140.608 83.1794 140.464C83.3794 140.312 83.5234 140.092 83.6114 139.804C83.7074 139.508 83.7554 139.144 83.7554 138.712C83.7554 138.28 83.7074 137.92 83.6114 137.632C83.5234 137.344 83.3794 137.128 83.1794 136.984C82.9794 136.84 82.7194 136.768 82.3994 136.768C81.9274 136.768 81.5834 136.932 81.3674 137.26C81.1594 137.58 81.0554 138.064 81.0554 138.712ZM90.7051 135.328C91.4411 135.328 92.0371 135.616 92.4931 136.192C92.9491 136.76 93.1771 137.6 93.1771 138.712C93.1771 139.456 93.0691 140.084 92.8531 140.596C92.6371 141.1 92.3411 141.48 91.9651 141.736C91.5891 141.992 91.1531 142.12 90.6571 142.12C90.3451 142.12 90.0731 142.08 89.8411 142C89.6171 141.92 89.4251 141.816 89.2651 141.688C89.1051 141.56 88.9651 141.424 88.8451 141.28H88.7491C88.7811 141.432 88.8051 141.592 88.8211 141.76C88.8371 141.92 88.8451 142.08 88.8451 142.24V144.88H87.0571V135.448H88.5091L88.7611 136.3H88.8451C88.9651 136.124 89.1091 135.964 89.2771 135.82C89.4451 135.668 89.6451 135.548 89.8771 135.46C90.1171 135.372 90.3931 135.328 90.7051 135.328ZM90.1291 136.756C89.8171 136.756 89.5691 136.82 89.3851 136.948C89.2011 137.076 89.0651 137.272 88.9771 137.536C88.8971 137.792 88.8531 138.116 88.8451 138.508V138.7C88.8451 139.124 88.8851 139.484 88.9651 139.78C89.0451 140.068 89.1811 140.288 89.3731 140.44C89.5651 140.592 89.8251 140.668 90.1531 140.668C90.4251 140.668 90.6491 140.592 90.8251 140.44C91.0011 140.288 91.1331 140.064 91.2211 139.768C91.3091 139.472 91.3531 139.112 91.3531 138.688C91.3531 138.048 91.2531 137.568 91.0531 137.248C90.8611 136.92 90.5531 136.756 90.1291 136.756ZM96.4388 135.448V142H94.6508V135.448H96.4388ZM95.5508 132.88C95.8148 132.88 96.0428 132.944 96.2348 133.072C96.4268 133.192 96.5228 133.42 96.5228 133.756C96.5228 134.084 96.4268 134.312 96.2348 134.44C96.0428 134.568 95.8148 134.632 95.5508 134.632C95.2788 134.632 95.0468 134.568 94.8548 134.44C94.6708 134.312 94.5788 134.084 94.5788 133.756C94.5788 133.42 94.6708 133.192 94.8548 133.072C95.0468 132.944 95.2788 132.88 95.5508 132.88ZM100.095 135.448V137.968H102.591V135.448H104.379V142H102.591V139.3H100.095V142H98.3071V135.448H100.095ZM110.548 135.448H112.516L109.924 138.592L112.744 142H110.716L108.04 138.676V142H106.252V135.448H108.04V138.628L110.548 135.448ZM116.37 135.316C117.25 135.316 117.922 135.508 118.386 135.892C118.858 136.268 119.094 136.848 119.094 137.632V142H117.846L117.498 141.112H117.45C117.266 141.344 117.074 141.536 116.874 141.688C116.682 141.84 116.458 141.948 116.202 142.012C115.954 142.084 115.646 142.12 115.278 142.12C114.894 142.12 114.546 142.048 114.234 141.904C113.93 141.752 113.69 141.524 113.514 141.22C113.338 140.908 113.25 140.516 113.25 140.044C113.25 139.348 113.494 138.836 113.982 138.508C114.47 138.172 115.202 137.988 116.178 137.956L117.318 137.92V137.632C117.318 137.288 117.226 137.036 117.042 136.876C116.866 136.716 116.618 136.636 116.298 136.636C115.978 136.636 115.666 136.684 115.362 136.78C115.058 136.868 114.754 136.98 114.45 137.116L113.862 135.904C114.214 135.72 114.602 135.576 115.026 135.472C115.458 135.368 115.906 135.316 116.37 135.316ZM116.622 138.988C116.046 139.004 115.646 139.108 115.422 139.3C115.198 139.492 115.086 139.744 115.086 140.056C115.086 140.328 115.166 140.524 115.326 140.644C115.486 140.756 115.694 140.812 115.95 140.812C116.334 140.812 116.658 140.7 116.922 140.476C117.186 140.244 117.318 139.92 117.318 139.504V138.964L116.622 138.988Z" fill="#EFEFEF"/>
<g filter="url(#filter1_d_3_8)">
<path d="M93 55C92.6153 55 92.2344 55.076 91.8794 55.2235C91.5244 55.3711 91.2023 55.5872 90.9318 55.8594L61.5909 81.3353C61.4077 81.4699 61.2587 81.6454 61.1561 81.8476C61.0535 82.0499 61 82.2734 61 82.5C61 82.8839 61.1532 83.252 61.426 83.5234C61.6988 83.7949 62.0688 83.9474 62.4545 83.9474H69.7273V107.105C69.7273 108.703 71.0305 110 72.6364 110H84.2727C85.8785 110 87.1818 108.703 87.1818 107.105V89.7368H98.8182V107.105C98.8182 108.703 100.121 110 101.727 110H113.364C114.969 110 116.273 108.703 116.273 107.105V83.9474H123.545C123.931 83.9474 124.301 83.7949 124.574 83.5234C124.847 83.252 125 82.8839 125 82.5C125 82.2734 124.947 82.0499 124.844 81.8476C124.741 81.6454 124.592 81.4699 124.409 81.3353L95.0852 55.8763C95.0796 55.8707 95.0739 55.865 95.0682 55.8594C94.7977 55.5872 94.4756 55.3711 94.1206 55.2235C93.7656 55.076 93.3847 55 93 55Z" fill="#EFEFEF"/>
</g>
</g>
<defs>
<filter id="filter0_d_3_8" x="0" y="0" width="186" height="186" filterUnits="userSpaceOnUse" color-interpolation-filters="sRGB">
<feFlood flood-opacity="0" result="BackgroundImageFix"/>
<feColorMatrix in="SourceAlpha" type="matrix" values="0 0 0 0 0 0 0 0 0 0 0 0 0 0 0 0 0 0 127 0" result="hardAlpha"/>
<feOffset/>
<feGaussianBlur stdDeviation="16.5"/>
<feComposite in2="hardAlpha" operator="out"/>
<feColorMatrix type="matrix" values="0 0 0 0 1 0 0 0 0 1 0 0 0 0 1 0 0 0 0.37 0"/>
<feBlend mode="normal" in2="BackgroundImageFix" result="effect1_dropShadow_3_8"/>
<feBlend mode="normal" in="SourceGraphic" in2="effect1_dropShadow_3_8" result="shape"/>
</filter>
<filter id="filter1_d_3_8" x="56" y="54" width="74" height="65" filterUnits="userSpaceOnUse" color-interpolation-filters="sRGB">
<feFlood flood-opacity="0" result="BackgroundImageFix"/>
<feColorMatrix in="SourceAlpha" type="matrix" values="0 0 0 0 0 0 0 0 0 0 0 0 0 0 0 0 0 0 127 0" result="hardAlpha"/>
<feOffset dy="4"/>
<feGaussianBlur stdDeviation="2.5"/>
<feComposite in2="hardAlpha" operator="out"/>
<feColorMatrix type="matrix" values="0 0 0 0 0 0 0 0 0 0 0 0 0 0 0 0 0 0 0.25 0"/>
<feBlend mode="normal" in2="BackgroundImageFix" result="effect1_dropShadow_3_8"/>
<feBlend mode="normal" in="SourceGraphic" in2="effect1_dropShadow_3_8" result="shape"/>
</filter>
</defs>
</svg>
