<svg width="186" height="186" viewBox="0 0 186 186" fill="none" xmlns="http://www.w3.org/2000/svg">
<g filter="url(#filter0_d_4_47)">
<rect x="33" y="33" width="120" height="120" rx="16" fill="#0F6381"/>
<path d="M74.6775 123.432V124.932H71.0775V132H69.2655V123.432H74.6775ZM77.5752 125.316C78.4552 125.316 79.1272 125.508 79.5912 125.892C80.0632 126.268 80.2992 126.848 80.2992 127.632V132H79.0512L78.7032 131.112H78.6552C78.4712 131.344 78.2792 131.536 78.0792 131.688C77.8872 131.84 77.6632 131.948 77.4072 132.012C77.1592 132.084 76.8512 132.12 76.4832 132.12C76.0992 132.12 75.7512 132.048 75.4392 131.904C75.1352 131.752 74.8952 131.524 74.7192 131.22C74.5432 130.908 74.4552 130.516 74.4552 130.044C74.4552 129.348 74.6992 128.836 75.1872 128.508C75.6752 128.172 76.4072 127.988 77.3832 127.956L78.5232 127.92V127.632C78.5232 127.288 78.4312 127.036 78.2472 126.876C78.0712 126.716 77.8232 126.636 77.5032 126.636C77.1832 126.636 76.8712 126.684 76.5672 126.78C76.2632 126.868 75.9592 126.98 75.6552 127.116L75.0672 125.904C75.4192 125.72 75.8072 125.576 76.2312 125.472C76.6632 125.368 77.1112 125.316 77.5752 125.316ZM77.8272 128.988C77.2512 129.004 76.8512 129.108 76.6272 129.3C76.4032 129.492 76.2912 129.744 76.2912 130.056C76.2912 130.328 76.3712 130.524 76.5312 130.644C76.6912 130.756 76.8992 130.812 77.1552 130.812C77.5392 130.812 77.8632 130.7 78.1272 130.476C78.3912 130.244 78.5232 129.92 78.5232 129.504V128.964L77.8272 128.988ZM87.9974 132H86.2094V126.792H84.5654C84.4854 127.752 84.3854 128.572 84.2654 129.252C84.1534 129.924 84.0094 130.472 83.8334 130.896C83.6654 131.32 83.4494 131.632 83.1854 131.832C82.9214 132.024 82.5974 132.12 82.2134 132.12C82.0054 132.12 81.8174 132.104 81.6494 132.072C81.4814 132.04 81.3294 131.992 81.1934 131.928V130.5C81.2814 130.532 81.3734 130.56 81.4694 130.584C81.5654 130.608 81.6654 130.62 81.7694 130.62C81.8814 130.62 81.9854 130.576 82.0814 130.488C82.1854 130.4 82.2814 130.244 82.3694 130.02C82.4654 129.796 82.5534 129.488 82.6334 129.096C82.7134 128.704 82.7854 128.212 82.8494 127.62C82.9214 127.02 82.9854 126.296 83.0414 125.448H87.9974V132ZM92.5637 125.328C93.1717 125.328 93.6917 125.444 94.1237 125.676C94.5637 125.908 94.9037 126.244 95.1437 126.684C95.3837 127.124 95.5037 127.664 95.5037 128.304V129.168H91.2797C91.2957 129.672 91.4437 130.068 91.7237 130.356C92.0117 130.644 92.4077 130.788 92.9117 130.788C93.3357 130.788 93.7197 130.748 94.0637 130.668C94.4077 130.58 94.7637 130.448 95.1317 130.272V131.652C94.8117 131.812 94.4717 131.928 94.1117 132C93.7597 132.08 93.3317 132.12 92.8277 132.12C92.1717 132.12 91.5917 132 91.0877 131.76C90.5837 131.512 90.1877 131.14 89.8997 130.644C89.6117 130.148 89.4677 129.524 89.4677 128.772C89.4677 128.004 89.5957 127.368 89.8517 126.864C90.1157 126.352 90.4797 125.968 90.9437 125.712C91.4077 125.456 91.9477 125.328 92.5637 125.328ZM92.5757 126.6C92.2317 126.6 91.9437 126.712 91.7117 126.936C91.4877 127.16 91.3557 127.508 91.3157 127.98H93.8237C93.8237 127.716 93.7757 127.48 93.6797 127.272C93.5917 127.064 93.4557 126.9 93.2717 126.78C93.0877 126.66 92.8557 126.6 92.5757 126.6ZM100.602 125.328C101.338 125.328 101.934 125.616 102.39 126.192C102.846 126.76 103.074 127.6 103.074 128.712C103.074 129.456 102.966 130.084 102.75 130.596C102.534 131.1 102.238 131.48 101.862 131.736C101.486 131.992 101.05 132.12 100.554 132.12C100.242 132.12 99.9696 132.08 99.7376 132C99.5136 131.92 99.3216 131.816 99.1616 131.688C99.0016 131.56 98.8616 131.424 98.7416 131.28H98.6456C98.6776 131.432 98.7016 131.592 98.7176 131.76C98.7336 131.92 98.7416 132.08 98.7416 132.24V134.88H96.9536V125.448H98.4056L98.6576 126.3H98.7416C98.8616 126.124 99.0056 125.964 99.1736 125.82C99.3416 125.668 99.5416 125.548 99.7736 125.46C100.014 125.372 100.29 125.328 100.602 125.328ZM100.026 126.756C99.7136 126.756 99.4656 126.82 99.2816 126.948C99.0976 127.076 98.9616 127.272 98.8736 127.536C98.7936 127.792 98.7496 128.116 98.7416 128.508V128.7C98.7416 129.124 98.7816 129.484 98.8616 129.78C98.9416 130.068 99.0776 130.288 99.2696 130.44C99.4616 130.592 99.7216 130.668 100.05 130.668C100.322 130.668 100.546 130.592 100.722 130.44C100.898 130.288 101.03 130.064 101.118 129.768C101.206 129.472 101.25 129.112 101.25 128.688C101.25 128.048 101.15 127.568 100.95 127.248C100.758 126.92 100.45 126.756 100.026 126.756ZM107.247 125.328C107.855 125.328 108.375 125.444 108.807 125.676C109.247 125.908 109.587 126.244 109.827 126.684C110.067 127.124 110.187 127.664 110.187 128.304V129.168H105.963C105.979 129.672 106.127 130.068 106.407 130.356C106.695 130.644 107.091 130.788 107.595 130.788C108.019 130.788 108.403 130.748 108.747 130.668C109.091 130.58 109.447 130.448 109.815 130.272V131.652C109.495 131.812 109.155 131.928 108.795 132C108.443 132.08 108.015 132.12 107.511 132.12C106.855 132.12 106.275 132 105.771 131.76C105.267 131.512 104.871 131.14 104.583 130.644C104.295 130.148 104.151 129.524 104.151 128.772C104.151 128.004 104.279 127.368 104.535 126.864C104.799 126.352 105.163 125.968 105.627 125.712C106.091 125.456 106.631 125.328 107.247 125.328ZM107.259 126.6C106.915 126.6 106.627 126.712 106.395 126.936C106.171 127.16 106.039 127.508 105.999 127.98H108.507C108.507 127.716 108.459 127.48 108.363 127.272C108.275 127.064 108.139 126.9 107.955 126.78C107.771 126.66 107.539 126.6 107.259 126.6ZM112.633 132H110.701L112.465 129.408C112.241 129.312 112.029 129.184 111.829 129.024C111.637 128.856 111.481 128.644 111.361 128.388C111.241 128.132 111.181 127.828 111.181 127.476C111.181 126.82 111.429 126.32 111.925 125.976C112.421 125.624 113.057 125.448 113.833 125.448H116.881V132H115.093V129.564H114.109L112.633 132ZM112.933 127.488C112.933 127.76 113.041 127.976 113.257 128.136C113.473 128.288 113.753 128.364 114.097 128.364H115.093V126.708H113.869C113.549 126.708 113.313 126.788 113.161 126.948C113.009 127.1 112.933 127.28 112.933 127.488Z" fill="#EFEFEF"/>
<g filter="url(#filter1_d_4_47)">
<path d="M121 103.889V61.1111C121 57.75 118.25 55 114.889 55H72.1111C68.75 55 66 57.75 66 61.1111V103.889C66 107.25 68.75 110 72.1111 110H114.889C118.25 110 121 107.25 121 103.889ZM84.0278 88.55L90.4444 96.2806L99.9167 84.0889C100.528 83.2944 101.75 83.2944 102.361 84.1194L113.086 98.4194C113.85 99.4278 113.117 100.864 111.864 100.864H75.2278C73.9444 100.864 73.2417 99.3972 74.0361 98.3889L81.6444 88.6111C82.225 87.8167 83.3861 87.7861 84.0278 88.55Z" fill="#EFEFEF"/>
</g>
</g>
<defs>
<filter id="filter0_d_4_47" x="0" y="0" width="186" height="186" filterUnits="userSpaceOnUse" color-interpolation-filters="sRGB">
<feFlood flood-opacity="0" result="BackgroundImageFix"/>
<feColorMatrix in="SourceAlpha" type="matrix" values="0 0 0 0 0 0 0 0 0 0 0 0 0 0 0 0 0 0 127 0" result="hardAlpha"/>
<feOffset/>
<feGaussianBlur stdDeviation="16.5"/>
<feComposite in2="hardAlpha" operator="out"/>
<feColorMatrix type="matrix" values="0 0 0 0 0.461313 0 0 0 0 0.802361 0 0 0 0 0.924167 0 0 0 0.37 0"/>
<feBlend mode="normal" in2="BackgroundImageFix" result="effect1_dropShadow_4_47"/>
<feBlend mode="normal" in="SourceGraphic" in2="effect1_dropShadow_4_47" result="shape"/>
</filter>
<filter id="filter1_d_4_47" x="61" y="54" width="65" height="65" filterUnits="userSpaceOnUse" color-interpolation-filters="sRGB">
<feFlood flood-opacity="0" result="BackgroundImageFix"/>
<feColorMatrix in="SourceAlpha" type="matrix" values="0 0 0 0 0 0 0 0 0 0 0 0 0 0 0 0 0 0 127 0" result="hardAlpha"/>
<feOffset dy="4"/>
<feGaussianBlur stdDeviation="2.5"/>
<feComposite in2="hardAlpha" operator="out"/>
<feColorMatrix type="matrix" values="0 0 0 0 0 0 0 0 0 0 0 0 0 0 0 0 0 0 0.25 0"/>
<feBlend mode="normal" in2="BackgroundImageFix" result="effect1_dropShadow_4_47"/>
<feBlend mode="normal" in="SourceGraphic" in2="effect1_dropShadow_4_47" result="shape"/>
</filter>
</defs>
</svg>
