<svg width="186" height="186" viewBox="0 0 186 186" fill="none" xmlns="http://www.w3.org/2000/svg">
<g filter="url(#filter0_d_4_42)">
<rect x="33" y="33" width="120" height="120" rx="16" fill="#0F6381"/>
<path d="M68.8058 132H66.9938V124.944H64.6658V123.432H71.1338V124.944H68.8058V132ZM74.0381 125.316C74.9181 125.316 75.5901 125.508 76.0541 125.892C76.5261 126.268 76.7621 126.848 76.7621 127.632V132H75.5141L75.1661 131.112H75.1181C74.9341 131.344 74.7421 131.536 74.5421 131.688C74.3501 131.84 74.1261 131.948 73.8701 132.012C73.6221 132.084 73.3141 132.12 72.9461 132.12C72.5621 132.12 72.2141 132.048 71.9021 131.904C71.5981 131.752 71.3581 131.524 71.1821 131.22C71.0061 130.908 70.9181 130.516 70.9181 130.044C70.9181 129.348 71.1621 128.836 71.6501 128.508C72.1381 128.172 72.8701 127.988 73.8461 127.956L74.9861 127.92V127.632C74.9861 127.288 74.8941 127.036 74.7101 126.876C74.5341 126.716 74.2861 126.636 73.9661 126.636C73.6461 126.636 73.3341 126.684 73.0301 126.78C72.7261 126.868 72.4221 126.98 72.1181 127.116L71.5301 125.904C71.8821 125.72 72.2701 125.576 72.6941 125.472C73.1261 125.368 73.5741 125.316 74.0381 125.316ZM74.2901 128.988C73.7141 129.004 73.3141 129.108 73.0901 129.3C72.8661 129.492 72.7541 129.744 72.7541 130.056C72.7541 130.328 72.8341 130.524 72.9941 130.644C73.1541 130.756 73.3621 130.812 73.6181 130.812C74.0021 130.812 74.3261 130.7 74.5901 130.476C74.8541 130.244 74.9861 129.92 74.9861 129.504V128.964L74.2901 128.988ZM81.4843 132.12C80.8123 132.12 80.2283 132.004 79.7323 131.772C79.2443 131.54 78.8643 131.176 78.5923 130.68C78.3283 130.184 78.1963 129.544 78.1963 128.76C78.1963 127.888 78.3323 127.204 78.6043 126.708C78.8763 126.204 79.2563 125.848 79.7443 125.64C80.2403 125.432 80.8163 125.328 81.4723 125.328C81.8323 125.328 82.1883 125.368 82.5403 125.448C82.9003 125.52 83.2403 125.624 83.5603 125.76L83.0443 127.032C82.7483 126.92 82.4643 126.828 82.1923 126.756C81.9283 126.684 81.6723 126.648 81.4243 126.648C81.1523 126.648 80.9203 126.704 80.7283 126.816C80.5363 126.92 80.3843 127.08 80.2723 127.296C80.1603 127.504 80.0843 127.772 80.0443 128.1H82.5163V129.288H80.0443C80.0843 129.624 80.1563 129.904 80.2603 130.128C80.3643 130.352 80.5083 130.52 80.6923 130.632C80.8843 130.736 81.1123 130.788 81.3763 130.788C81.7603 130.788 82.1083 130.744 82.4203 130.656C82.7323 130.568 83.0483 130.456 83.3683 130.32V131.688C83.0883 131.832 82.7963 131.94 82.4923 132.012C82.1963 132.084 81.8603 132.12 81.4843 132.12ZM93.1412 125.448V132H91.4732V128.784C91.4732 128.464 91.4772 128.152 91.4852 127.848C91.5012 127.544 91.5212 127.264 91.5452 127.008H91.5092L89.6972 132H88.3532L86.5172 126.996H86.4692C86.5012 127.26 86.5212 127.544 86.5292 127.848C86.5452 128.144 86.5532 128.472 86.5532 128.832V132H84.8852V125.448H87.4172L89.0492 129.888L90.7052 125.448H93.1412ZM96.7982 125.448V127.968H99.2942V125.448H101.082V132H99.2942V129.3H96.7982V132H95.0102V125.448H96.7982ZM104.684 128.04C104.684 128.176 104.676 128.344 104.66 128.544C104.652 128.744 104.64 128.948 104.624 129.156C104.616 129.364 104.604 129.548 104.588 129.708C104.572 129.868 104.56 129.98 104.552 130.044L107.576 125.448H109.724V132H107.996V129.384C107.996 129.168 108.004 128.932 108.02 128.676C108.036 128.412 108.052 128.168 108.068 127.944C108.092 127.712 108.108 127.536 108.116 127.416L105.104 132H102.956V125.448H104.684V128.04ZM118.744 134.352H117.136V132H111.592V125.448H113.38V130.656H115.996V125.448H117.784V130.692H118.744V134.352ZM121.642 125.448V132H119.854V125.448H121.642ZM120.754 122.88C121.018 122.88 121.246 122.944 121.438 123.072C121.63 123.192 121.726 123.42 121.726 123.756C121.726 124.084 121.63 124.312 121.438 124.44C121.246 124.568 121.018 124.632 120.754 124.632C120.482 124.632 120.25 124.568 120.058 124.44C119.874 124.312 119.782 124.084 119.782 123.756C119.782 123.42 119.874 123.192 120.058 123.072C120.25 122.944 120.482 122.88 120.754 122.88Z" fill="#EFEFEF"/>
<g filter="url(#filter1_d_4_42)">
<path d="M100.123 56.6225C99.0775 55.5775 97.675 55 96.2175 55H76.5C73.475 55 71 57.475 71 60.5V104.5C71 107.525 73.4475 110 76.4725 110H109.5C112.525 110 115 107.525 115 104.5V73.7825C115 72.325 114.422 70.9225 113.377 69.905L100.123 56.6225ZM101.25 99H84.75C83.2375 99 82 97.7625 82 96.25C82 94.7375 83.2375 93.5 84.75 93.5H101.25C102.763 93.5 104 94.7375 104 96.25C104 97.7625 102.763 99 101.25 99ZM101.25 88H84.75C83.2375 88 82 86.7625 82 85.25C82 83.7375 83.2375 82.5 84.75 82.5H101.25C102.763 82.5 104 83.7375 104 85.25C104 86.7625 102.763 88 101.25 88ZM95.75 71.5V59.125L110.875 74.25H98.5C96.9875 74.25 95.75 73.0125 95.75 71.5Z" fill="#EFEFEF"/>
</g>
</g>
<defs>
<filter id="filter0_d_4_42" x="0" y="0" width="186" height="186" filterUnits="userSpaceOnUse" color-interpolation-filters="sRGB">
<feFlood flood-opacity="0" result="BackgroundImageFix"/>
<feColorMatrix in="SourceAlpha" type="matrix" values="0 0 0 0 0 0 0 0 0 0 0 0 0 0 0 0 0 0 127 0" result="hardAlpha"/>
<feOffset/>
<feGaussianBlur stdDeviation="16.5"/>
<feComposite in2="hardAlpha" operator="out"/>
<feColorMatrix type="matrix" values="0 0 0 0 0.461313 0 0 0 0 0.802361 0 0 0 0 0.924167 0 0 0 0.37 0"/>
<feBlend mode="normal" in2="BackgroundImageFix" result="effect1_dropShadow_4_42"/>
<feBlend mode="normal" in="SourceGraphic" in2="effect1_dropShadow_4_42" result="shape"/>
</filter>
<filter id="filter1_d_4_42" x="66" y="54" width="54" height="65" filterUnits="userSpaceOnUse" color-interpolation-filters="sRGB">
<feFlood flood-opacity="0" result="BackgroundImageFix"/>
<feColorMatrix in="SourceAlpha" type="matrix" values="0 0 0 0 0 0 0 0 0 0 0 0 0 0 0 0 0 0 127 0" result="hardAlpha"/>
<feOffset dy="4"/>
<feGaussianBlur stdDeviation="2.5"/>
<feComposite in2="hardAlpha" operator="out"/>
<feColorMatrix type="matrix" values="0 0 0 0 0 0 0 0 0 0 0 0 0 0 0 0 0 0 0.25 0"/>
<feBlend mode="normal" in2="BackgroundImageFix" result="effect1_dropShadow_4_42"/>
<feBlend mode="normal" in="SourceGraphic" in2="effect1_dropShadow_4_42" result="shape"/>
</filter>
</defs>
</svg>
