<svg width="186" height="186" viewBox="0 0 186 186" fill="none" xmlns="http://www.w3.org/2000/svg">
<g filter="url(#filter0_d_4_51)">
<rect x="33" y="33" width="120" height="120" rx="16" fill="#0F6381"/>
<path d="M62.0722 120.436C62.0722 121.012 61.8682 121.476 61.4602 121.828C61.0522 122.18 60.5322 122.4 59.9002 122.488V122.524C60.6842 122.604 61.2842 122.824 61.7002 123.184C62.1242 123.536 62.3362 123.996 62.3362 124.564C62.3362 125.06 62.2002 125.504 61.9282 125.896C61.6562 126.28 61.2522 126.58 60.7162 126.796C60.1802 127.012 59.5162 127.12 58.7242 127.12C58.0762 127.12 57.5002 127.08 56.9962 127C56.5002 126.92 56.0682 126.804 55.7002 126.652V125.128C55.9482 125.248 56.2282 125.352 56.5402 125.44C56.8522 125.52 57.1682 125.584 57.4882 125.632C57.8082 125.672 58.1042 125.692 58.3762 125.692C59.1362 125.692 59.6842 125.584 60.0202 125.368C60.3642 125.144 60.5362 124.832 60.5362 124.432C60.5362 124.024 60.2882 123.728 59.7922 123.544C59.2962 123.352 58.6282 123.256 57.7882 123.256H56.9842V121.84H57.7042C58.3842 121.84 58.9122 121.796 59.2882 121.708C59.6642 121.62 59.9282 121.492 60.0802 121.324C60.2322 121.156 60.3082 120.956 60.3082 120.724C60.3082 120.428 60.1762 120.196 59.9122 120.028C59.6562 119.852 59.2682 119.764 58.7482 119.764C58.3082 119.764 57.8922 119.828 57.5002 119.956C57.1162 120.084 56.7562 120.252 56.4202 120.46L55.6282 119.248C55.9242 119.056 56.2362 118.892 56.5642 118.756C56.9002 118.612 57.2682 118.504 57.6682 118.432C58.0682 118.352 58.5122 118.312 59.0002 118.312C59.6482 118.312 60.2002 118.404 60.6562 118.588C61.1122 118.772 61.4602 119.024 61.7002 119.344C61.9482 119.656 62.0722 120.02 62.0722 120.436ZM66.4814 120.316C67.3614 120.316 68.0334 120.508 68.4974 120.892C68.9694 121.268 69.2054 121.848 69.2054 122.632V127H67.9574L67.6094 126.112H67.5614C67.3774 126.344 67.1854 126.536 66.9854 126.688C66.7934 126.84 66.5694 126.948 66.3134 127.012C66.0654 127.084 65.7574 127.12 65.3894 127.12C65.0054 127.12 64.6574 127.048 64.3454 126.904C64.0414 126.752 63.8014 126.524 63.6254 126.22C63.4494 125.908 63.3614 125.516 63.3614 125.044C63.3614 124.348 63.6054 123.836 64.0934 123.508C64.5814 123.172 65.3134 122.988 66.2894 122.956L67.4294 122.92V122.632C67.4294 122.288 67.3374 122.036 67.1534 121.876C66.9774 121.716 66.7294 121.636 66.4094 121.636C66.0894 121.636 65.7774 121.684 65.4734 121.78C65.1694 121.868 64.8654 121.98 64.5614 122.116L63.9734 120.904C64.3254 120.72 64.7134 120.576 65.1374 120.472C65.5694 120.368 66.0174 120.316 66.4814 120.316ZM66.7334 123.988C66.1574 124.004 65.7574 124.108 65.5334 124.3C65.3094 124.492 65.1974 124.744 65.1974 125.056C65.1974 125.328 65.2774 125.524 65.4374 125.644C65.5974 125.756 65.8054 125.812 66.0614 125.812C66.4454 125.812 66.7694 125.7 67.0334 125.476C67.2974 125.244 67.4294 124.92 67.4294 124.504V123.964L66.7334 123.988ZM76.9876 120.448V127H75.1996V121.792H72.8236V127H71.0356V120.448H76.9876ZM84.7317 127H82.9437V121.792H81.2997C81.2197 122.752 81.1197 123.572 80.9997 124.252C80.8877 124.924 80.7437 125.472 80.5677 125.896C80.3997 126.32 80.1837 126.632 79.9197 126.832C79.6557 127.024 79.3317 127.12 78.9477 127.12C78.7397 127.12 78.5517 127.104 78.3837 127.072C78.2157 127.04 78.0637 126.992 77.9277 126.928V125.5C78.0157 125.532 78.1077 125.56 78.2037 125.584C78.2997 125.608 78.3997 125.62 78.5037 125.62C78.6157 125.62 78.7197 125.576 78.8157 125.488C78.9197 125.4 79.0157 125.244 79.1037 125.02C79.1997 124.796 79.2877 124.488 79.3677 124.096C79.4477 123.704 79.5197 123.212 79.5837 122.62C79.6557 122.02 79.7197 121.296 79.7757 120.448H84.7317V127ZM89.2861 120.316C90.1661 120.316 90.8381 120.508 91.3021 120.892C91.7741 121.268 92.0101 121.848 92.0101 122.632V127H90.7621L90.4141 126.112H90.3661C90.1821 126.344 89.9901 126.536 89.7901 126.688C89.5981 126.84 89.3741 126.948 89.1181 127.012C88.8701 127.084 88.5621 127.12 88.1941 127.12C87.8101 127.12 87.4621 127.048 87.1501 126.904C86.8461 126.752 86.6061 126.524 86.4301 126.22C86.2541 125.908 86.1661 125.516 86.1661 125.044C86.1661 124.348 86.4101 123.836 86.8981 123.508C87.3861 123.172 88.1181 122.988 89.0941 122.956L90.2341 122.92V122.632C90.2341 122.288 90.1421 122.036 89.9581 121.876C89.7821 121.716 89.5341 121.636 89.2141 121.636C88.8941 121.636 88.5821 121.684 88.2781 121.78C87.9741 121.868 87.6701 121.98 87.3661 122.116L86.7781 120.904C87.1301 120.72 87.5181 120.576 87.9421 120.472C88.3741 120.368 88.8221 120.316 89.2861 120.316ZM89.5381 123.988C88.9621 124.004 88.5621 124.108 88.3381 124.3C88.1141 124.492 88.0021 124.744 88.0021 125.056C88.0021 125.328 88.0821 125.524 88.2421 125.644C88.4021 125.756 88.6101 125.812 88.8661 125.812C89.2501 125.812 89.5741 125.7 89.8381 125.476C90.1021 125.244 90.2341 124.92 90.2341 124.504V123.964L89.5381 123.988ZM95.6283 120.448V122.968H98.1243V120.448H99.9123V127H98.1243V124.3H95.6283V127H93.8403V120.448H95.6283ZM100.85 120.448H102.806L104.042 124.132C104.082 124.252 104.114 124.372 104.138 124.492C104.17 124.612 104.194 124.736 104.21 124.864C104.234 124.992 104.25 125.128 104.258 125.272H104.294C104.318 125.064 104.35 124.868 104.39 124.684C104.438 124.492 104.49 124.308 104.546 124.132L105.758 120.448H107.678L104.906 127.84C104.738 128.288 104.518 128.664 104.246 128.968C103.982 129.272 103.674 129.5 103.322 129.652C102.97 129.804 102.586 129.88 102.17 129.88C101.97 129.88 101.794 129.868 101.642 129.844C101.498 129.828 101.37 129.808 101.258 129.784V128.368C101.346 128.384 101.45 128.4 101.57 128.416C101.698 128.432 101.83 128.44 101.966 128.44C102.214 128.44 102.426 128.388 102.602 128.284C102.786 128.18 102.938 128.036 103.058 127.852C103.178 127.676 103.274 127.484 103.346 127.276L103.454 126.952L100.85 120.448ZM114.894 117.628C114.854 118.044 114.738 118.412 114.546 118.732C114.354 119.044 114.054 119.288 113.646 119.464C113.238 119.64 112.69 119.728 112.002 119.728C111.298 119.728 110.746 119.644 110.346 119.476C109.954 119.3 109.674 119.056 109.506 118.744C109.338 118.432 109.238 118.06 109.206 117.628H110.802C110.842 118.068 110.954 118.36 111.138 118.504C111.322 118.648 111.622 118.72 112.038 118.72C112.382 118.72 112.662 118.644 112.878 118.492C113.102 118.332 113.234 118.044 113.274 117.628H114.894ZM110.346 123.04C110.346 123.176 110.338 123.344 110.322 123.544C110.314 123.744 110.302 123.948 110.286 124.156C110.278 124.364 110.266 124.548 110.25 124.708C110.234 124.868 110.222 124.98 110.214 125.044L113.238 120.448H115.386V127H113.658V124.384C113.658 124.168 113.666 123.932 113.682 123.676C113.698 123.412 113.714 123.168 113.73 122.944C113.754 122.712 113.77 122.536 113.778 122.416L110.766 127H108.618V120.448H110.346V123.04ZM122.678 121.792H120.53V127H118.742V121.792H116.594V120.448H122.678V121.792ZM126.47 120.328C127.078 120.328 127.598 120.444 128.03 120.676C128.47 120.908 128.81 121.244 129.05 121.684C129.29 122.124 129.41 122.664 129.41 123.304V124.168H125.186C125.202 124.672 125.35 125.068 125.63 125.356C125.918 125.644 126.314 125.788 126.818 125.788C127.242 125.788 127.626 125.748 127.97 125.668C128.314 125.58 128.67 125.448 129.038 125.272V126.652C128.718 126.812 128.378 126.928 128.018 127C127.666 127.08 127.238 127.12 126.734 127.12C126.078 127.12 125.498 127 124.994 126.76C124.49 126.512 124.094 126.14 123.806 125.644C123.518 125.148 123.374 124.524 123.374 123.772C123.374 123.004 123.502 122.368 123.758 121.864C124.022 121.352 124.386 120.968 124.85 120.712C125.314 120.456 125.854 120.328 126.47 120.328ZM126.482 121.6C126.138 121.6 125.85 121.712 125.618 121.936C125.394 122.16 125.262 122.508 125.222 122.98H127.73C127.73 122.716 127.682 122.48 127.586 122.272C127.498 122.064 127.362 121.9 127.178 121.78C126.994 121.66 126.762 121.6 126.482 121.6ZM82.6795 137.164C82.6795 137.516 82.5675 137.816 82.3435 138.064C82.1275 138.312 81.8035 138.472 81.3715 138.544V138.592C81.8275 138.648 82.1915 138.804 82.4635 139.06C82.7435 139.316 82.8835 139.644 82.8835 140.044C82.8835 140.324 82.8275 140.584 82.7155 140.824C82.6115 141.064 82.4435 141.272 82.2115 141.448C81.9795 141.624 81.6795 141.76 81.3115 141.856C80.9515 141.952 80.5115 142 79.9915 142H76.8715V135.448H79.9915C80.5035 135.448 80.9595 135.504 81.3595 135.616C81.7675 135.72 82.0875 135.896 82.3195 136.144C82.5595 136.392 82.6795 136.732 82.6795 137.164ZM81.0355 139.948C81.0355 139.692 80.9355 139.508 80.7355 139.396C80.5355 139.276 80.2355 139.216 79.8355 139.216H78.6595V140.764H79.8715C80.2075 140.764 80.4835 140.704 80.6995 140.584C80.9235 140.456 81.0355 140.244 81.0355 139.948ZM80.8675 137.308C80.8675 137.1 80.7875 136.948 80.6275 136.852C80.4675 136.756 80.2315 136.708 79.9195 136.708H78.6595V138.004H79.7155C80.0915 138.004 80.3755 137.952 80.5675 137.848C80.7675 137.736 80.8675 137.556 80.8675 137.308ZM86.2064 135.448V142H84.4184V135.448H86.2064ZM85.3184 132.88C85.5824 132.88 85.8104 132.944 86.0024 133.072C86.1944 133.192 86.2904 133.42 86.2904 133.756C86.2904 134.084 86.1944 134.312 86.0024 134.44C85.8104 134.568 85.5824 134.632 85.3184 134.632C85.0464 134.632 84.8144 134.568 84.6224 134.44C84.4384 134.312 84.3464 134.084 84.3464 133.756C84.3464 133.42 84.4384 133.192 84.6224 133.072C84.8144 132.944 85.0464 132.88 85.3184 132.88ZM90.4627 135.328C90.9347 135.328 91.3747 135.392 91.7827 135.52C92.1987 135.64 92.5307 135.828 92.7787 136.084C93.0347 136.34 93.1627 136.668 93.1627 137.068C93.1627 137.46 93.0427 137.772 92.8027 138.004C92.5707 138.236 92.2547 138.404 91.8547 138.508V138.568C92.1347 138.632 92.3867 138.724 92.6107 138.844C92.8347 138.956 93.0107 139.112 93.1387 139.312C93.2747 139.504 93.3427 139.764 93.3427 140.092C93.3427 140.452 93.2267 140.788 92.9947 141.1C92.7707 141.404 92.4187 141.652 91.9387 141.844C91.4667 142.028 90.8587 142.12 90.1147 142.12C89.7627 142.12 89.4307 142.104 89.1187 142.072C88.8067 142.04 88.5227 141.996 88.2667 141.94C88.0107 141.876 87.7867 141.8 87.5947 141.712V140.236C87.8667 140.364 88.1987 140.48 88.5907 140.584C88.9907 140.688 89.4147 140.74 89.8627 140.74C90.1907 140.74 90.4827 140.716 90.7387 140.668C91.0027 140.62 91.2107 140.54 91.3627 140.428C91.5227 140.316 91.6027 140.168 91.6027 139.984C91.6027 139.808 91.5347 139.664 91.3987 139.552C91.2627 139.432 91.0587 139.344 90.7867 139.288C90.5147 139.232 90.1667 139.204 89.7427 139.204H89.0467V137.968H89.7067C90.2987 137.968 90.7547 137.92 91.0747 137.824C91.4027 137.728 91.5667 137.548 91.5667 137.284C91.5667 137.076 91.4627 136.92 91.2547 136.816C91.0467 136.704 90.7067 136.648 90.2347 136.648C89.9227 136.648 89.5827 136.684 89.2147 136.756C88.8467 136.828 88.4987 136.932 88.1707 137.068L87.6427 135.82C88.0187 135.676 88.4307 135.56 88.8787 135.472C89.3267 135.376 89.8547 135.328 90.4627 135.328ZM96.4589 138.04C96.4589 138.176 96.4509 138.344 96.4349 138.544C96.4269 138.744 96.4149 138.948 96.3989 139.156C96.3909 139.364 96.3789 139.548 96.3629 139.708C96.3469 139.868 96.3349 139.98 96.3269 140.044L99.3509 135.448H101.499V142H99.7709V139.384C99.7709 139.168 99.7789 138.932 99.7949 138.676C99.8109 138.412 99.8269 138.168 99.8429 137.944C99.8669 137.712 99.8829 137.536 99.8909 137.416L96.8789 142H94.7309V135.448H96.4589V138.04ZM108.792 136.792H106.644V142H104.856V136.792H102.708V135.448H108.792V136.792Z" fill="#EFEFEF"/>
<g filter="url(#filter1_d_4_51)">
<path d="M101.265 60.7694L85.7004 55.3522C84.393 54.8879 82.9611 54.8879 81.6537 55.3213L69.2335 59.4693C66.7121 60.336 65 62.6886 65 65.3508V102.033C65 106.397 69.3891 109.369 73.4669 107.79L82.5875 104.262C83.2724 103.983 84.0506 103.983 84.7354 104.231L100.3 109.648C101.607 110.112 103.039 110.112 104.346 109.679L116.767 105.531C119.288 104.695 121 102.311 121 99.6492V62.9672C121 58.6025 116.611 55.6308 112.533 57.2095L103.412 60.7384C102.728 60.9861 101.981 61.017 101.265 60.7694ZM102.354 103.828L83.677 97.2966V61.1718L102.354 67.7034V103.828Z" fill="#EFEFEF"/>
</g>
</g>
<defs>
<filter id="filter0_d_4_51" x="0" y="0" width="186" height="186" filterUnits="userSpaceOnUse" color-interpolation-filters="sRGB">
<feFlood flood-opacity="0" result="BackgroundImageFix"/>
<feColorMatrix in="SourceAlpha" type="matrix" values="0 0 0 0 0 0 0 0 0 0 0 0 0 0 0 0 0 0 127 0" result="hardAlpha"/>
<feOffset/>
<feGaussianBlur stdDeviation="16.5"/>
<feComposite in2="hardAlpha" operator="out"/>
<feColorMatrix type="matrix" values="0 0 0 0 0.461313 0 0 0 0 0.802361 0 0 0 0 0.924167 0 0 0 0.37 0"/>
<feBlend mode="normal" in2="BackgroundImageFix" result="effect1_dropShadow_4_51"/>
<feBlend mode="normal" in="SourceGraphic" in2="effect1_dropShadow_4_51" result="shape"/>
</filter>
<filter id="filter1_d_4_51" x="60" y="54" width="66" height="65" filterUnits="userSpaceOnUse" color-interpolation-filters="sRGB">
<feFlood flood-opacity="0" result="BackgroundImageFix"/>
<feColorMatrix in="SourceAlpha" type="matrix" values="0 0 0 0 0 0 0 0 0 0 0 0 0 0 0 0 0 0 127 0" result="hardAlpha"/>
<feOffset dy="4"/>
<feGaussianBlur stdDeviation="2.5"/>
<feComposite in2="hardAlpha" operator="out"/>
<feColorMatrix type="matrix" values="0 0 0 0 0 0 0 0 0 0 0 0 0 0 0 0 0 0 0.25 0"/>
<feBlend mode="normal" in2="BackgroundImageFix" result="effect1_dropShadow_4_51"/>
<feBlend mode="normal" in="SourceGraphic" in2="effect1_dropShadow_4_51" result="shape"/>
</filter>
</defs>
</svg>
